<svg viewBox="0 0 139 141" fill="none" xmlns="http://www.w3.org/2000/svg">
<path d="M33.0283 57C33.0283 38.3631 35.0623 8.84019 41.5708 0C51.3334 0.00161973 58.4521 1.65282 69.0283 3.54714C65.1232 21.7327 67.808 34.2676 61.0961 57L51.3334 34.2676C41.5706 41.0259 40.3504 46.351 33.0283 57Z" fill="#F8BF95"/>
<path d="M134.957 55.7685C134.957 36.9651 141.868 12.4523 134.957 3.5332C124.694 -1.00807 109.563 1.56803 98.3653 3.47449L98.0283 3.53186C102.175 21.8798 98.4602 54.5325 109.69 66L121.352 32.5266C127.028 42.5278 127.182 45.0244 134.957 55.7685Z" fill="#F8DA75"/>
<path opacity="0.07" d="M82.0283 5C82.0283 62.6642 69.9917 102.865 69.0283 118" stroke="#333333"/>
<path d="M62.1204 114.328C64.5283 111.838 66.3433 112.228 70.5662 104.348C71.8454 101.961 70.5662 112.509 70.5662 116.146C70.5662 119.056 78.2076 119.784 82.0283 119.784C80.6207 121.804 75.5049 123.009 69.7135 123.978C69.7135 126.201 70.5662 135.181 70.5662 141C66.0355 132.491 61.9012 127.514 62.0687 127.088C61.3043 127.29 54.8136 128.542 50.0551 131.3L56.0877 119.784C53.5098 116.834 48.9728 113.088 47.0283 109.966C51.2513 111.702 54.581 114.328 62.1204 114.328Z" fill="#AAB9ED"/>
<path opacity="0.07" d="M27.0283 5C15.0283 50 18.8283 51.2 18.0283 64" stroke="#333333"/>
<path d="M19.7271 66.2374C19.2506 64.9346 19.7139 65.4801 18.0494 60.0359C18.0252 58.1021 16.474 62.6508 15.2369 64.9202C12.572 65.9984 11.4461 65.4497 6.42279 65.4307C8.68367 67.0706 9.24182 67.0727 11.5027 68.7126C10.7468 70.0994 7.11474 76.3135 5.13552 79.9445C12.6644 74.9478 15.1449 74.4397 15.4185 74.2571C15.8197 74.8676 19.2194 78.7688 21.8404 81.0202C21.8404 81.0202 19.1867 73.2753 19.8146 71.2828C20.4425 69.2902 28.0926 68.0585 29.878 66.2758C24.8547 66.257 23.186 66.581 19.7271 66.2374Z" fill="#EF8062"/>
</svg>
